<svg width="66" height="42" viewBox="0 0 66 42" fill="none" xmlns="http://www.w3.org/2000/svg">
<path d="M13 13.5952H1V15.6944H13V13.5952Z" fill="#222222" stroke="#222222"/>
<path d="M65 13.5952H53V15.6944H65V13.5952Z" fill="#222222" stroke="#222222"/>
<path d="M33.0859 23.9781V24.8292H29.9309C29.9309 24.8292 29.9312 23.9781 30.7197 23.9781H33.0859Z" fill="#393939"/>
<path d="M29.9309 24.8292C29.9309 24.8292 29.142 24.8292 27.5647 24.8292C25.9875 24.8292 25.9873 23.1271 25.9873 23.1271L25.6998 20.0257M29.9309 24.8292H33.0859V23.9781C33.0859 23.9781 31.5086 23.9781 30.7197 23.9781C29.9312 23.9781 29.9309 24.8292 29.9309 24.8292ZM24.4098 6.10625C24.4098 6.10625 23.6207 6.10625 22.8323 6.10625C22.1436 6.10625 21.2549 5.25521 22.0436 4.40417C22.8323 3.55313 24.4098 3.55313 24.4098 3.55313H25.6998M24.4098 6.10625H33.0859M24.4098 6.10625L24.6809 9.03094M33.0859 3.55313H25.6998M24.6809 9.03094H33.0859M24.6809 9.03094L25.6998 20.0257M25.6998 20.0257H33.0859M25.6998 3.55313L26.776 1H33.0859" stroke="#222222" stroke-width="2"/>
<path d="M30.9759 17.1691C30.3741 16.5375 30.2095 15.1352 30.1737 14.7285C30.167 14.6532 30.167 14.5787 30.1737 14.5034C30.2095 14.0967 30.3741 12.6945 30.9759 12.0628C31.5692 11.4401 32.8763 11.2634 33.2842 11.2225C33.3671 11.2142 33.4495 11.2142 33.5324 11.2225C33.9403 11.2634 35.2474 11.4401 35.8408 12.0628C36.5488 12.806 36.6516 13.565 36.6516 14.616C36.6516 15.667 36.5488 16.4259 35.8408 17.1691C35.2474 17.7919 33.9403 17.9685 33.5324 18.0094C33.4495 18.0177 33.3671 18.0177 33.2842 18.0094C32.8763 17.9685 31.5692 17.7919 30.9759 17.1691Z" stroke="#222222"/>
<path d="M32.5943 23.9781V24.8292H35.7492C35.7492 24.8292 35.749 23.9781 34.9605 23.9781H32.5943Z" fill="#393939"/>
<path d="M35.7492 24.8292C35.7492 24.8292 36.5382 24.8292 38.1154 24.8292C39.6927 24.8292 39.6929 23.1271 39.6929 23.1271L39.9803 20.0257M35.7492 24.8292H32.5943V23.9781C32.5943 23.9781 34.1715 23.9781 34.9605 23.9781C35.749 23.9781 35.7492 24.8292 35.7492 24.8292ZM41.2704 6.10625C41.2704 6.10625 42.0595 6.10625 42.8478 6.10625C43.5366 6.10625 44.4253 5.25521 43.6366 4.40417C42.8478 3.55313 41.2704 3.55313 41.2704 3.55313H39.9803M41.2704 6.10625H32.5943M41.2704 6.10625L40.9993 9.03094M32.5943 3.55313H39.9803M40.9993 9.03094H32.5943M40.9993 9.03094L39.9803 20.0257M39.9803 20.0257H32.5943M39.9803 3.55313L38.9042 1H32.5943" stroke="#222222" stroke-width="2"/>
<path d="M15.5661 29.0855C15.3422 29.3205 14.9792 29.3205 14.7553 29.0855C14.5314 28.8505 14.5314 28.4695 14.7553 28.2345C14.9792 27.9995 15.3422 27.9995 15.5661 28.2345C15.79 28.4695 15.79 28.8505 15.5661 29.0855Z" fill="#393939"/>
<path d="M13.9444 31.6386H15.566V39.298L13.9444 41.0001H12.3228M23.6743 32.4896H22.8634L21.2418 31.6386C21.2418 31.6386 20.1866 31.3413 19.6202 31.6386C19.2196 31.8488 18.9509 32.0437 18.8093 32.4896C18.7092 32.8049 18.7092 33.0254 18.8093 33.3407C18.9509 33.7866 19.2196 33.9815 19.6202 34.1917C20.1866 34.489 20.6085 34.1917 21.2418 34.1917C22.0526 34.1917 22.6878 34.972 22.8634 35.8938C22.9255 36.2197 22.9636 36.4295 22.8634 36.7448C22.6395 37.4499 21.933 37.4347 21.2418 37.5959C20.6236 37.7401 20.1866 37.8931 19.6202 37.5959C19.2196 37.3857 18.8093 36.7448 18.8093 36.7448H17.9985M14.7553 29.0855C14.9792 29.3205 15.3422 29.3205 15.5661 29.0855C15.79 28.8505 15.79 28.4695 15.5661 28.2345C15.3422 27.9995 14.9792 27.9995 14.7553 28.2345C14.5314 28.4695 14.5314 28.8505 14.7553 29.0855Z" stroke="#222222"/>
<path d="M33.4031 28.233H34.2139L34.2136 33.3393M34.2136 37.5945C34.2136 37.5945 32.1035 38.189 30.9707 37.5945C30.1696 37.1741 29.7018 36.7564 29.349 35.8924C28.9748 34.976 28.9748 34.2557 29.349 33.3393C29.7018 32.4753 30.121 31.9345 30.9707 31.6372C31.5714 31.427 32.5923 31.6372 32.5923 31.6372L34.2136 33.3393M34.2136 37.5945V33.3393M34.2136 37.5945H35.8352M38.2677 34.1903C38.2677 34.1903 41.511 34.1903 43.1326 34.1903C43.4493 34.1903 43.2328 33.6546 43.1326 33.3393C42.991 32.8934 42.3218 32.4882 42.3218 32.4882C42.3218 32.4882 41.4082 31.6372 40.7002 31.6372C39.9921 31.6372 39.6374 32.032 39.0785 32.4882C38.725 32.7768 38.4981 32.9362 38.2677 33.3393C37.779 34.1943 37.779 35.0374 38.2677 35.8924C38.4981 36.2954 38.725 36.4549 39.0785 36.7435C39.6374 37.1997 40.009 37.4333 40.7002 37.5945C41.3184 37.7387 41.7036 37.7387 42.3218 37.5945C43.013 37.4333 43.9435 36.7435 43.9435 36.7435M45.5651 31.6372H47.1867L48.8084 37.5945H49.6192L51.2408 31.6372H52.8625" stroke="#222222"/>
</svg>
