<svg width="100" height="40" viewBox="0 0 100 40" fill="none" xmlns="http://www.w3.org/2000/svg">
<rect width="100" height="40" rx="10" fill="white"/>
<path d="M23.3892 19.9902H31.9795L23.3892 6.99996H14.7988L23.3892 19.9902Z" fill="#74EA56"/>
<path d="M14.5918 19.9902H6.00144L14.5918 6.99996H23.1821L14.5918 19.9902Z" fill="#EDDA74"/>
<path d="M14.6665 33L14.6665 19.8267L31.9998 19.8267L31.9998 33L14.6665 33Z" fill="#5AD8D8"/>
<path d="M6 32.9807L6 19.9904L14.5903 19.9904L14.5903 32.9807L6 32.9807Z" fill="#9AF4AE"/>
<g filter="url(#filter0_d_333_618)">
<path d="M38.6435 29V10.0909H46.1037C47.5379 10.0909 48.7597 10.3648 49.7692 10.9126C50.7786 11.4543 51.5481 12.2083 52.0774 13.1747C52.6129 14.1349 52.8807 15.2429 52.8807 16.4986C52.8807 17.7543 52.6098 18.8622 52.0682 19.8224C51.5265 20.7827 50.7417 21.5305 49.7138 22.0661C48.692 22.6016 47.4548 22.8693 46.0021 22.8693H41.2472V19.6655H45.3558C46.1252 19.6655 46.7592 19.5331 47.2578 19.2685C47.7625 18.9976 48.138 18.6252 48.3842 18.1513C48.6366 17.6712 48.7628 17.1203 48.7628 16.4986C48.7628 15.8707 48.6366 15.3229 48.3842 14.8551C48.138 14.3812 47.7625 14.0149 47.2578 13.7564C46.7531 13.4917 46.1129 13.3594 45.3374 13.3594H42.6413V29H38.6435ZM62.1806 29H55.4775V10.0909H62.236C64.138 10.0909 65.7753 10.4695 67.1479 11.2266C68.5205 11.9775 69.5762 13.0578 70.3148 14.4673C71.0596 15.8769 71.432 17.5634 71.432 19.527C71.432 21.4967 71.0596 23.1894 70.3148 24.6051C69.5762 26.0208 68.5144 27.1072 67.1294 27.8643C65.7507 28.6214 64.101 29 62.1806 29ZM59.4753 25.5746H62.0144C63.1962 25.5746 64.1903 25.3653 64.9966 24.9467C65.8091 24.522 66.4185 23.8665 66.8248 22.9801C67.2372 22.0876 67.4434 20.9366 67.4434 19.527C67.4434 18.1297 67.2372 16.9879 66.8248 16.1016C66.4185 15.2152 65.8122 14.5627 65.0059 14.1442C64.1995 13.7256 63.2054 13.5163 62.0236 13.5163H59.4753V25.5746ZM91.7699 19.5455C91.7699 21.6075 91.379 23.3617 90.5973 24.8082C89.8217 26.2547 88.763 27.3596 87.4212 28.1229C86.0855 28.88 84.5836 29.2585 82.9155 29.2585C81.2351 29.2585 79.727 28.8769 78.3913 28.1136C77.0556 27.3504 76 26.2455 75.2244 24.799C74.4489 23.3525 74.0611 21.6013 74.0611 19.5455C74.0611 17.4834 74.4489 15.7292 75.2244 14.2827C76 12.8362 77.0556 11.7344 78.3913 10.9773C79.727 10.214 81.2351 9.83239 82.9155 9.83239C84.5836 9.83239 86.0855 10.214 87.4212 10.9773C88.763 11.7344 89.8217 12.8362 90.5973 14.2827C91.379 15.7292 91.7699 17.4834 91.7699 19.5455ZM87.7166 19.5455C87.7166 18.2098 87.5166 17.0833 87.1165 16.1662C86.7225 15.2491 86.1655 14.5535 85.4453 14.0795C84.7251 13.6056 83.8819 13.3686 82.9155 13.3686C81.9491 13.3686 81.1058 13.6056 80.3857 14.0795C79.6655 14.5535 79.1054 15.2491 78.7053 16.1662C78.3113 17.0833 78.1143 18.2098 78.1143 19.5455C78.1143 20.8812 78.3113 22.0076 78.7053 22.9247C79.1054 23.8419 79.6655 24.5374 80.3857 25.0114C81.1058 25.4853 81.9491 25.7223 82.9155 25.7223C83.8819 25.7223 84.7251 25.4853 85.4453 25.0114C86.1655 24.5374 86.7225 23.8419 87.1165 22.9247C87.5166 22.0076 87.7166 20.8812 87.7166 19.5455Z" fill="black"/>
</g>
<defs>
<filter id="filter0_d_333_618" x="38.6436" y="9.8324" width="55.1265" height="21.4261" filterUnits="userSpaceOnUse" color-interpolation-filters="sRGB">
<feFlood flood-opacity="0" result="BackgroundImageFix"/>
<feColorMatrix in="SourceAlpha" type="matrix" values="0 0 0 0 0 0 0 0 0 0 0 0 0 0 0 0 0 0 127 0" result="hardAlpha"/>
<feOffset dx="1" dy="1"/>
<feGaussianBlur stdDeviation="0.5"/>
<feComposite in2="hardAlpha" operator="out"/>
<feColorMatrix type="matrix" values="0 0 0 0 0 0 0 0 0 0 0 0 0 0 0 0 0 0 0.22 0"/>
<feBlend mode="normal" in2="BackgroundImageFix" result="effect1_dropShadow_333_618"/>
<feBlend mode="normal" in="SourceGraphic" in2="effect1_dropShadow_333_618" result="shape"/>
</filter>
</defs>
</svg>
